<svg xmlns="http://www.w3.org/2000/svg" width="720" height="916.2"><g><path d="M356.25 279.5l-167.375 59 26.375 219.25 141.125 77.625L498.25 556.75l26.5-219.375-168.5-57.875z" fill="#b3b3b3"/><path d="M508 350.125L355.875 298.25v318.625l127.5-70.625L508 350.125z" fill="#af2b2d"/><path d="M207.625 351l22.625 196.125 125.625 69.625V298.125L207.625 351z" fill="#df2e31"/><path d="M391.125 456.625l-35-73.125-30.875 73.125H391zm-64.85-58.175h-92.75l-20.75 51.875-38.625.75 103.5-230.25 107.125 230.25h-35.75l-22.75-52.625z" fill="#f2f2f2"/><path d="M355.875 309.75l.25 73.875 35 73.125H356l-.125 30.625H404.5L427.25 540l37 .75-108.25-231z" fill="#b3b3b3"/></g></svg>