<svg width="1280" height="651" xmlns="http://www.w3.org/2000/svg"><path d="M-111-92l-3 426 4-251z" fill="#fcffff" stroke="#fcffff"/><path d="M-111-92l1 175L40-57z" fill="#fff" stroke="#fff"/><path d="M-111-92L40-57l176-36z" fill="#f7fbfe" stroke="#f7fbfe"/><path d="M-111-92l327-1 589-16z" fill="#e4eef8" stroke="#e4eef8"/><path d="M40-57L-110 83 64 4z" fill="#fbfdff" stroke="#fbfdff"/><path d="M40-57L64 4l152-97z" fill="#f3f8fd" stroke="#f3f8fd"/><path d="M216-93L64 4l92 62z" fill="#f0f6fc" stroke="#f0f6fc"/><path d="M216-93L156 66l135-12z" fill="#eaf2fa" stroke="#eaf2fa"/><path d="M216-93l75 147 36-121z" fill="#e6eff8" stroke="#e6eff8"/><path d="M216-93l111 26 88-11z" fill="#e3edf7" stroke="#e3edf7"/><path d="M216-93l199 15 390-31z" fill="#cfe5f0" stroke="#cfe5f0"/><path d="M327-67L291 54l95-53z" fill="#e1ecf7" stroke="#e1ecf7"/><path d="M327-67l59 68 29-79z" fill="#dceaf5" stroke="#dceaf5"/><path d="M415-78L386 1l172-23z" fill="#d2e6f1" stroke="#d2e6f1"/><path d="M415-78l143 56 247-87z" fill="#bddbec" stroke="#bddbec"/><path d="M558-22L386 1l108 77z" fill="#cfe5f0" stroke="#cfe5f0"/><path d="M558-22L494 78l125-11z" fill="#c2deee" stroke="#c2deee"/><path d="M558-22l61 89 63-72z" fill="#b8d9eb" stroke="#b8d9eb"/><path d="M558-22L682-5l123-104z" fill="#b0d3e9" stroke="#b0d3e9"/><path d="M682-5l-63 72 31 56z" fill="#b4d6ea" stroke="#b4d6ea"/><path d="M682-5l-32 128 135-60z" fill="#add1e7" stroke="#add1e7"/><path d="M682-5l103 68 20-172z" fill="#a6cce5" stroke="#a6cce5"/><path d="M805-109L785 63l71-49z" fill="#9fc7e2" stroke="#9fc7e2"/><path d="M805-109l51 123 86-23z" fill="#9ac2df" stroke="#9ac2df"/><path d="M805-109L942-9l165-97z" fill="#91b9db" stroke="#91b9db"/><path d="M942-9l-86 23 148 58z" fill="#93bbdc" stroke="#93bbdc"/><path d="M942-9l62 81 19-93z" fill="#8eb4d7" stroke="#8eb4d7"/><path d="M942-9l81-12 84-85z" fill="#8bafd4" stroke="#8bafd4"/><path d="M1023-21l-19 93 180-58z" fill="#88a9cf" stroke="#88a9cf"/><path d="M1023-21l161 35-77-120z" fill="#85a4cb" stroke="#85a4cb"/><path d="M1107-106l77 120 20-48z" fill="#809cc5" stroke="#809cc5"/><path d="M1107-106l97 72 196 21z" fill="#8092be" stroke="#8092be"/><path d="M1204-34l-20 48 19 50z" fill="#8098c2" stroke="#8098c2"/><path d="M1204-34l-1 98 185-41z" fill="#808ebb" stroke="#808ebb"/><path d="M1204-34l184 57 12-36z" fill="#8085b4" stroke="#8085b4"/><path d="M1400-13l-12 36-10 263z" fill="#7e80ae" stroke="#7e80ae"/><path d="M1400-13l-22 299 43 387z" fill="#446aad" stroke="#446aad"/><path d="M1400-13l21 686 13 121z" fill="#154598" stroke="#154598"/><path d="M-110 83l-4 251 81-150z" fill="#ebfcff" stroke="#ebfcff"/><path d="M-110 83l77 101L64 4z" fill="#fcffff" stroke="#fcffff"/><path d="M64 4l-97 180L156 66z" fill="#f6fafe" stroke="#f6fafe"/><path d="M156 66L-33 184l62 50z" fill="#eefbfe" stroke="#eefbfe"/><path d="M156 66L29 234l153-14z" fill="#e5f6fc" stroke="#e5f6fc"/><path d="M156 66l26 154L291 54z" fill="#e8f3fa" stroke="#e8f3fa"/><path d="M291 54L182 220l97 11z" fill="#ddf0f9" stroke="#ddf0f9"/><path d="M291 54l-12 177 184-105z" fill="#d9ecf6" stroke="#d9ecf6"/><path d="M291 54l172 72L386 1z" fill="#dbeaf5" stroke="#dbeaf5"/><path d="M386 1l77 125 31-48z" fill="#d3e6f2" stroke="#d3e6f2"/><path d="M494 78l-31 48 89 89z" fill="#c4e3ef" stroke="#c4e3ef"/><path d="M494 78l58 137 67-148z" fill="#bedeee" stroke="#bedeee"/><path d="M619 67l-67 148 98-92z" fill="#b4daec" stroke="#b4daec"/><path d="M785 63l-135 60 183 42z" fill="#a2cde5" stroke="#a2cde5"/><path d="M785 63l48 102 23-151z" fill="#9ec6e1" stroke="#9ec6e1"/><path d="M856 14l-23 151 171-93z" fill="#96bfde" stroke="#96bfde"/><path d="M1004 72l-171 93 42 49z" fill="#8ebedd" stroke="#8ebedd"/><path d="M1004 72L875 214l151-87z" fill="#89b7d9" stroke="#89b7d9"/><path d="M1004 72l22 55 158-113z" fill="#88a9cf" stroke="#88a9cf"/><path d="M1184 14l-158 113 177-63z" fill="#82a0c8" stroke="#82a0c8"/><path d="M1203 64l-177 63 172 111z" fill="#7b9fc7" stroke="#7b9fc7"/><path d="M1203 64l-5 174 68-46z" fill="#7694bf" stroke="#7694bf"/><path d="M1203 64l63 128 70-41z" fill="#798eba" stroke="#798eba"/><path d="M1203 64l133 87 52-128z" fill="#8088b6" stroke="#8088b6"/><path d="M1388 23l-52 128 42 135z" fill="#7780b0" stroke="#7780b0"/><path d="M-33 184l-81 150L29 234z" fill="#daf7ff" stroke="#daf7ff"/><path d="M29 234l-143 100 148 19z" fill="#c4eaff" stroke="#c4eaff"/><path d="M29 234l5 119 110-83z" fill="#c5eafe" stroke="#c5eafe"/><path d="M29 234l115 36 38-50z" fill="#d2f0fc" stroke="#d2f0fc"/><path d="M182 220l-38 50 106 82z" fill="#bde5fa" stroke="#bde5fa"/><path d="M182 220l68 132 29-121z" fill="#bee5f9" stroke="#bee5f9"/><path d="M279 231l-29 121 164-77z" fill="#b2def7" stroke="#b2def7"/><path d="M279 231l135 44 49-149z" fill="#c3e6f4" stroke="#c3e6f4"/><path d="M463 126l-49 149 138-60z" fill="#b9e1f0" stroke="#b9e1f0"/><path d="M552 215l-138 60 104 80z" fill="#9dd4f0" stroke="#9dd4f0"/><path d="M552 215l-34 140 105-60z" fill="#8fcded" stroke="#8fcded"/><path d="M552 215l71 80 27-172z" fill="#a3d6ec" stroke="#a3d6ec"/><path d="M650 123l-27 172 119 25z" fill="#8fcce9" stroke="#8fcce9"/><path d="M650 123l92 197 91-155z" fill="#93cae6" stroke="#93cae6"/><path d="M833 165l-91 155 133-106z" fill="#81c1e2" stroke="#81c1e2"/><path d="M875 214L742 320l183-53z" fill="#72b8e0" stroke="#72b8e0"/><path d="M875 214l50 53 101-140z" fill="#7db7db" stroke="#7db7db"/><path d="M1026 127L925 267l98-16z" fill="#75afd7" stroke="#75afd7"/><path d="M1026 127l-3 124 81 19z" fill="#70a7d1" stroke="#70a7d1"/><path d="M1026 127l78 143 94-32z" fill="#6da0cb" stroke="#6da0cb"/><path d="M1198 238l-94 32 135 13z" fill="#578fc4" stroke="#578fc4"/><path d="M1198 238l41 45 27-91z" fill="#608cbe" stroke="#608cbe"/><path d="M1266 192l-27 91 139 3z" fill="#5b81b8" stroke="#5b81b8"/><path d="M1266 192l112 94-42-135z" fill="#6882b4" stroke="#6882b4"/><path d="M-114 334l44 416-9-187z" fill="#92afdd" stroke="#92afdd"/><path d="M-114 334l35 229-5-148z" fill="#9fcff2" stroke="#9fcff2"/><path d="M-114 334l30 81 118-62z" fill="#b3dffa" stroke="#b3dffa"/><path d="M34 353l-118 62 176 97z" fill="#9dd0f3" stroke="#9dd0f3"/><path d="M34 353l58 159 10-151z" fill="#9cd0f4" stroke="#9cd0f4"/><path d="M34 353l68 8 42-91z" fill="#b3e0fc" stroke="#b3e0fc"/><path d="M144 270l-42 91 136 7z" fill="#acdcfa" stroke="#acdcfa"/><path d="M144 270l94 98 12-16z" fill="#a9daf9" stroke="#a9daf9"/><path d="M250 352l-12 16 49 65z" fill="#96ccf2" stroke="#96ccf2"/><path d="M250 352l37 81 111 2z" fill="#8bc5ee" stroke="#8bc5ee"/><path d="M250 352l148 83 16-160z" fill="#96cdf2" stroke="#96cdf2"/><path d="M414 275l-16 160 120-80z" fill="#8ac9ee" stroke="#8ac9ee"/><path d="M518 355l-120 80 165-30z" fill="#77bde7" stroke="#77bde7"/><path d="M518 355l45 50 60-110z" fill="#79c0ea" stroke="#79c0ea"/><path d="M623 295l-60 110 136 56z" fill="#65b3e4" stroke="#65b3e4"/><path d="M623 295l76 166 43-141z" fill="#65b4e4" stroke="#65b4e4"/><path d="M742 320l-43 141 75-76z" fill="#56a9de" stroke="#56a9de"/><path d="M742 320l32 65 151-118z" fill="#60b0e2" stroke="#60b0e2"/><path d="M925 267L774 385l90 48z" fill="#50a4dc" stroke="#50a4dc"/><path d="M925 267l-61 166 111 55z" fill="#3f96d4" stroke="#3f96d4"/><path d="M925 267l50 221 84-20z" fill="#368cce" stroke="#368cce"/><path d="M925 267l134 201-36-217z" fill="#4c9ad5" stroke="#4c9ad5"/><path d="M1023 251l36 217 45-198z" fill="#4791cf" stroke="#4791cf"/><path d="M1104 270l-45 198 138-22z" fill="#2f7cc2" stroke="#2f7cc2"/><path d="M1104 270l93 176 42-163z" fill="#3d81c3" stroke="#3d81c3"/><path d="M1239 283l-42 163 70 7z" fill="#2b6db6" stroke="#2b6db6"/><path d="M1239 283l28 170 60-16z" fill="#2c67b2" stroke="#2c67b2"/><path d="M1239 283l88 154 51-151z" fill="#3d6db5" stroke="#3d6db5"/><path d="M1378 286l-51 151 94 236z" fill="#19499f" stroke="#19499f"/><path d="M-84 415l5 148 171-51z" fill="#91c0ea" stroke="#91c0ea"/><path d="M102 361L92 512l146-144z" fill="#96ccf1" stroke="#96ccf1"/><path d="M238 368L92 512l40 26z" fill="#87bdea" stroke="#87bdea"/><path d="M238 368L132 538l155-105z" fill="#88c0eb" stroke="#88c0eb"/><path d="M287 433L132 538l159-3z" fill="#7db1e2" stroke="#7db1e2"/><path d="M287 433l4 102 107-100z" fill="#7bb6e6" stroke="#7bb6e6"/><path d="M398 435L291 535l159-21z" fill="#6face0" stroke="#6face0"/><path d="M398 435l52 79 113-109z" fill="#6db2e2" stroke="#6db2e2"/><path d="M563 405L450 514l112 42z" fill="#5ca4da" stroke="#5ca4da"/><path d="M563 405l-1 151 137-95z" fill="#52a1da" stroke="#52a1da"/><path d="M699 461l-137 95 43 17z" fill="#4b8fcd" stroke="#4b8fcd"/><path d="M699 461l-94 112 19 46z" fill="#4786c8" stroke="#4786c8"/><path d="M699 461l-75 158 214-45z" fill="#3d7fc4" stroke="#3d7fc4"/><path d="M699 461l139 113 26-141z" fill="#358ccf" stroke="#358ccf"/><path d="M699 461l165-28-90-48z" fill="#469ed8" stroke="#469ed8"/><path d="M864 433l-26 141 92-60z" fill="#2c7fc7" stroke="#2c7fc7"/><path d="M864 433l66 81 45-26z" fill="#2b83ca" stroke="#2b83ca"/><path d="M1059 468l-84 20 44 127z" fill="#1f69b8" stroke="#1f69b8"/><path d="M1059 468l-40 147 174-59z" fill="#1957ab" stroke="#1957ab"/><path d="M1059 468l134 88 4-110z" fill="#1562b3" stroke="#1562b3"/><path d="M1197 446l-4 110 96-49z" fill="#1353a8" stroke="#1353a8"/><path d="M1197 446l92 61-22-54z" fill="#1859ab" stroke="#1859ab"/><path d="M1267 453l22 54 38-70z" fill="#1954a7" stroke="#1954a7"/><path d="M1327 437l-38 70 45 87z" fill="#13439c" stroke="#13439c"/><path d="M1327 437l7 157 87 79z" fill="#122b8a" stroke="#122b8a"/><path d="M-79 563l9 187 40-37z" fill="#8f86be" stroke="#8f86be"/><path d="M-79 563l49 150 43-27z" fill="#8e8dc3" stroke="#8e8dc3"/><path d="M-79 563l92 123 79-174z" fill="#8ca1d3" stroke="#8ca1d3"/><path d="M92 512L13 686l119-148z" fill="#87a0d4" stroke="#87a0d4"/><path d="M132 538L13 686l111 2z" fill="#858cc5" stroke="#858cc5"/><path d="M132 538l-8 150 145 28z" fill="#7e85c0" stroke="#7e85c0"/><path d="M132 538l137 178 22-181z" fill="#7b93cb" stroke="#7b93cb"/><path d="M291 535l-22 181 174-70z" fill="#7181c0" stroke="#7181c0"/><path d="M291 535l152 111 7-132z" fill="#6b94cd" stroke="#6b94cd"/><path d="M450 514l-7 132 37-27z" fill="#6388c4" stroke="#6388c4"/><path d="M450 514l30 105 82-63z" fill="#5e8fca" stroke="#5e8fca"/><path d="M562 556l-82 63h144z" fill="#547fbf" stroke="#547fbf"/><path d="M562 556l62 63-19-46z" fill="#4e80c2" stroke="#4e80c2"/><path d="M838 574l-214 45 128 75z" fill="#3964b0" stroke="#3964b0"/><path d="M838 574l-86 120 113-4z" fill="#2f55a6" stroke="#2f55a6"/><path d="M838 574l27 116 154-75z" fill="#2655a8" stroke="#2655a8"/><path d="M838 574l181 41-89-101z" fill="#2565b5" stroke="#2565b5"/><path d="M930 514l89 101-44-127z" fill="#226ab9" stroke="#226ab9"/><path d="M1193 556l-174 59 166 41z" fill="#143d97" stroke="#143d97"/><path d="M1193 556l-8 100 75-43z" fill="#11338f" stroke="#11338f"/><path d="M1193 556l67 57 29-106z" fill="#123e98" stroke="#123e98"/><path d="M1289 507l-29 106 74-19z" fill="#123390" stroke="#123390"/><path d="M1334 594l-74 19 161 60z" fill="#101b7e" stroke="#101b7e"/><path d="M-30 713l-40 37 113 58z" fill="#8a7faa" stroke="#8a7faa"/><path d="M-30 713l73 95-30-122z" fill="#897daf" stroke="#897daf"/><path d="M13 686l30 122 81-120z" fill="#857baf" stroke="#857baf"/><path d="M124 688L43 808l133 17z" fill="#7f78a3" stroke="#7f78a3"/><path d="M124 688l52 137 76-48z" fill="#7a75a4" stroke="#7a75a4"/><path d="M124 688l128 89 17-61z" fill="#7973ac" stroke="#7973ac"/><path d="M269 716l-17 61 125 51z" fill="#716f9e" stroke="#716f9e"/><path d="M269 716l108 112 66-182z" fill="#6b6ba6" stroke="#6b6ba6"/><path d="M443 646l-66 182 156 12z" fill="#5f6799" stroke="#5f6799"/><path d="M443 646l90 194-53-221z" fill="#5d65a8" stroke="#5d65a8"/><path d="M480 619l53 221 91-221z" fill="#5361a8" stroke="#5361a8"/><path d="M624 619l-91 221 109-20z" fill="#495b96" stroke="#495b96"/><path d="M624 619l18 201 110-126z" fill="#40549f" stroke="#40549f"/><path d="M752 694L642 820l183-6z" fill="#354f8c" stroke="#354f8c"/><path d="M752 694l73 120 40-124z" fill="#2d4893" stroke="#2d4893"/><path d="M865 690l-40 124 59 7z" fill="#284386" stroke="#284386"/><path d="M865 690l19 131 178-77z" fill="#203b87" stroke="#203b87"/><path d="M865 690l197 54-43-129z" fill="#1e3a94" stroke="#1e3a94"/><path d="M1019 615l43 129 123-88z" fill="#162f8c" stroke="#162f8c"/><path d="M1185 656l-123 88 102 3z" fill="#11207c" stroke="#11207c"/><path d="M1185 656l-21 91 96-134z" fill="#0f1f81" stroke="#0f1f81"/><path d="M1260 613l-96 134 149 87z" fill="#0e116e" stroke="#0e116e"/><path d="M1260 613l53 221 108-161z" fill="#0e066b" stroke="#0e066b"/><path d="M1421 673l-108 161 121-40z" fill="#0d0056" stroke="#0d0056"/><path d="M176 825l357 15-156-12z" fill="#696c8e" stroke="#696c8e"/><path d="M176 825l201 3-125-51z" fill="#737096" stroke="#737096"/><path d="M533 840l780-6-429-13z" fill="#213e75" stroke="#213e75"/><path d="M533 840l351-19-242-1z" fill="#3b5381" stroke="#3b5381"/><path d="M642 820l242 1-59-7z" fill="#2f4b7f" stroke="#2f4b7f"/><path d="M884 821l429 13-251-90z" fill="#13276d" stroke="#13276d"/><path d="M1062 744l251 90-149-87z" fill="#0d1b6a" stroke="#0d1b6a"/></svg>