<svg xmlns="http://www.w3.org/2000/svg" width="335.875" height="355.875" viewBox="0, 0, 335.875, 355.875"><g><path d="M167.375 0L0 59l26.375 219.25L167.5 355.875l141.875-78.625 26.5-219.375L167.375 0z" fill="#B3B3B3"/><path d="M319.125 70.625L167 18.75v318.625l127.5-70.625 24.625-196.125z" fill="#AF2B2D"/><path d="M18.75 71.5l22.625 196.125L167 337.25V18.625L18.75 71.5z" fill="#DF2E31"/><path d="M202.25 177.125l-35-73.125-30.875 73.125h65.75zm202.25 310.25h-92.75L291 539.25l-38.625.75 103.5-230.25L463 540h-35.75l-22.75-52.625z" fill="#F2F2F2"/><path d="M167 30.25l.25 73.875 35 73.125h-35.125L167 207.875h48.625l22.75 52.625 37 .75-108.25-231z" fill="#B3B3B3"/></g></svg>