<svg width="1280" height="651" xmlns="http://www.w3.org/2000/svg"><path d="M-84-73l-23 382 56-190z" fill="#f8bb66" stroke="#f8bb66"/><path d="M-84-73l33 192L51 17z" fill="#f8b349" stroke="#f8b349"/><path d="M-84-73L51 17l42-80z" fill="#f8af3a" stroke="#f8af3a"/><path d="M-84-73L93-63l245-50z" fill="#f9b33d" stroke="#f9b33d"/><path d="M93-63L51 17l165 35z" fill="#f9bf61" stroke="#f9bf61"/><path d="M93-63L216 52 177-71z" fill="#f9bf5d" stroke="#f9bf5d"/><path d="M93-63l84-8 161-42z" fill="#fabb50" stroke="#fabb50"/><path d="M177-71l39 123 122-165z" fill="#fac569" stroke="#fac569"/><path d="M338-113L216 52l131-8z" fill="#facf84" stroke="#facf84"/><path d="M338-113l9 157 77-36z" fill="#fbd48d" stroke="#fbd48d"/><path d="M338-113L424 8l30-92z" fill="#fbd283" stroke="#fbd283"/><path d="M338-113l116 29 122-5z" fill="#f8cc7a" stroke="#f8cc7a"/><path d="M338-113l238 24 130-30z" fill="#efc075" stroke="#efc075"/><path d="M454-84L424 8l152-97z" fill="#f5ce88" stroke="#f5ce88"/><path d="M576-89L424 8l102 108z" fill="#f2d4a2" stroke="#f2d4a2"/><path d="M576-89l-50 205 169-73z" fill="#e8cba1" stroke="#e8cba1"/><path d="M576-89L695 43l11-162z" fill="#e2b97d" stroke="#e2b97d"/><path d="M706-119L695 43l26-151z" fill="#dcb277" stroke="#dcb277"/><path d="M706-119l15 11 144 48z" fill="#d6a667" stroke="#d6a667"/><path d="M706-119l159 59 157-16z" fill="#cb9b64" stroke="#cb9b64"/><path d="M706-119l316 43 166 10z" fill="#bf8e5d" stroke="#bf8e5d"/><path d="M721-108L695 43h122z" fill="#d8b58b" stroke="#d8b58b"/><path d="M721-108l96 151 48-103z" fill="#d2a97a" stroke="#d2a97a"/><path d="M865-60L817 43l89-20z" fill="#cba888" stroke="#cba888"/><path d="M865-60l41 83 116-99z" fill="#c49974" stroke="#c49974"/><path d="M1022-76L906 23l87 16z" fill="#bf997e" stroke="#bf997e"/><path d="M1022-76L993 39l188 4z" fill="#b58f7c" stroke="#b58f7c"/><path d="M1022-76l159 119 7-109z" fill="#ae8269" stroke="#ae8269"/><path d="M1188-66l-7 109 42 7z" fill="#a67f76" stroke="#a67f76"/><path d="M1188-66l35 116 42-97z" fill="#a37769" stroke="#a37769"/><path d="M1188-66l77 19 113 12z" fill="#9e6d59" stroke="#9e6d59"/><path d="M1265-47l-42 97 110 35z" fill="#9e797a" stroke="#9e797a"/><path d="M1265-47l68 132 45-120z" fill="#986e6b" stroke="#986e6b"/><path d="M1378-35l-45 120 11 114z" fill="#95768b" stroke="#95768b"/><path d="M1378-35l-34 234 40 116z" fill="#937faa" stroke="#937faa"/><path d="M1378-35l6 350 31 136z" fill="#8c7fbf" stroke="#8c7fbf"/><path d="M1378-35l37 486 18 159z" fill="#7a69b9" stroke="#7a69b9"/><path d="M-51 119l-56 190 75-116z" fill="#f8ca8e" stroke="#f8ca8e"/><path d="M-51 119l19 74 80-71z" fill="#f8c67f" stroke="#f8c67f"/><path d="M-51 119l99 3 3-105z" fill="#f8c06d" stroke="#f8c06d"/><path d="M51 17l-3 105 168-70z" fill="#f9c677" stroke="#f9c677"/><path d="M216 52L48 122l100 116z" fill="#f9d49c" stroke="#f9d49c"/><path d="M216 52l-68 186 173-61z" fill="#fadfb7" stroke="#fadfb7"/><path d="M216 52l105 125 26-133z" fill="#faddab" stroke="#faddab"/><path d="M347 44l-26 133 94 20z" fill="#fbeacd" stroke="#fbeacd"/><path d="M347 44l68 153 9-189z" fill="#fbe5bd" stroke="#fbe5bd"/><path d="M424 8l-9 189 111-81z" fill="#f8e8cc" stroke="#f8e8cc"/><path d="M526 116l-111 81 79 86z" fill="#f6f2f1" stroke="#f6f2f1"/><path d="M526 116l-32 167 89-62z" fill="#efedf0" stroke="#efedf0"/><path d="M526 116l57 105L695 43z" fill="#e8d9cb" stroke="#e8d9cb"/><path d="M695 43L583 221l118-8z" fill="#e2d7d5" stroke="#e2d7d5"/><path d="M695 43l6 170 123-11z" fill="#d9ccce" stroke="#d9ccce"/><path d="M695 43l129 159-7-159z" fill="#d4bfb4" stroke="#d4bfb4"/><path d="M817 43l7 159 113-18z" fill="#ccbcc2" stroke="#ccbcc2"/><path d="M817 43l120 141-31-161z" fill="#c9b0a8" stroke="#c9b0a8"/><path d="M906 23l31 161 56-145z" fill="#c2a8a4" stroke="#c2a8a4"/><path d="M993 39l-56 145 74-43z" fill="#beaab2" stroke="#beaab2"/><path d="M993 39l18 102 170-98z" fill="#b5999a" stroke="#b5999a"/><path d="M1181 43l-170 98 171 39z" fill="#ae98a9" stroke="#ae98a9"/><path d="M1181 43l1 137 41-130z" fill="#a78b98" stroke="#a78b98"/><path d="M1223 50l-41 130 95-29z" fill="#a38ca5" stroke="#a38ca5"/><path d="M1223 50l54 101 56-66z" fill="#9e8295" stroke="#9e8295"/><path d="M1333 85l-56 66 67 48z" fill="#9984a7" stroke="#9984a7"/><path d="M-32 193l-75 116 182 49z" fill="#edc198" stroke="#edc198"/><path d="M-32 193L75 358l73-120z" fill="#f1cfab" stroke="#f1cfab"/><path d="M-32 193l180 45L48 122z" fill="#f9d29e" stroke="#f9d29e"/><path d="M148 238L75 358l95-47z" fill="#ebcdb7" stroke="#ebcdb7"/><path d="M148 238l22 73 138 13z" fill="#edd7c8" stroke="#edd7c8"/><path d="M148 238l160 86 13-147z" fill="#f5e5d6" stroke="#f5e5d6"/><path d="M321 177l-13 147 107-127z" fill="#f8f1e9" stroke="#f8f1e9"/><path d="M415 197L308 324l133-12z" fill="#f1ebf0" stroke="#f1ebf0"/><path d="M415 197l26 115 53-29z" fill="#f1eff7" stroke="#f1eff7"/><path d="M583 221l-89 62 80 143z" fill="#dedaef" stroke="#dedaef"/><path d="M583 221l-9 205 119-99z" fill="#d4ceea" stroke="#d4ceea"/><path d="M583 221l110 106 8-114z" fill="#dcd7eb" stroke="#dcd7eb"/><path d="M701 213l-8 114 131-125z" fill="#d4cfe7" stroke="#d4cfe7"/><path d="M824 202L693 327l147 22z" fill="#c7c0e1" stroke="#c7c0e1"/><path d="M824 202l16 147 53-82z" fill="#c3bcde" stroke="#c3bcde"/><path d="M824 202l69 65 44-83z" fill="#c9c3df" stroke="#c9c3df"/><path d="M937 184l-44 83 143-12z" fill="#beb7da" stroke="#beb7da"/><path d="M937 184l99 71-25-114z" fill="#bdb2cf" stroke="#bdb2cf"/><path d="M1011 141l25 114 146-75z" fill="#b4a8c9" stroke="#b4a8c9"/><path d="M1182 180l-146 75 56 76z" fill="#aaa0d0" stroke="#aaa0d0"/><path d="M1182 180l-90 151 164-42z" fill="#a095cb" stroke="#a095cb"/><path d="M1182 180l74 109 21-138z" fill="#a296c5" stroke="#a296c5"/><path d="M1277 151l-21 138 88-90z" fill="#9c90c5" stroke="#9c90c5"/><path d="M1344 199l-88 90 128 26z" fill="#8f82c2" stroke="#8f82c2"/><path d="M-107 309v119l182-70z" fill="#dfaf8e" stroke="#dfaf8e"/><path d="M75 358l-182 70 201-8z" fill="#d9af9b" stroke="#d9af9b"/><path d="M75 358l19 62 76-109z" fill="#e1bfb0" stroke="#e1bfb0"/><path d="M170 311L94 420l96 36z" fill="#dbbdb7" stroke="#dbbdb7"/><path d="M170 311l20 145 114-85z" fill="#dec7c7" stroke="#dec7c7"/><path d="M170 311l134 60 4-47z" fill="#e6d3d2" stroke="#e6d3d2"/><path d="M308 324l-4 47 137-59z" fill="#e7dce5" stroke="#e7dce5"/><path d="M441 312l-137 59 155 80z" fill="#e0d9ee" stroke="#e0d9ee"/><path d="M441 312l18 139 115-25z" fill="#d6d0ee" stroke="#d6d0ee"/><path d="M441 312l133 114-80-143z" fill="#ded9f0" stroke="#ded9f0"/><path d="M693 327l-119 99 90-10z" fill="#c6bfe5" stroke="#c6bfe5"/><path d="M693 327l-29 89 124 39z" fill="#bdb4e1" stroke="#bdb4e1"/><path d="M693 327l95 128 52-106z" fill="#bab1de" stroke="#bab1de"/><path d="M840 349l-52 106 88-28z" fill="#aea3d8" stroke="#aea3d8"/><path d="M840 349l36 78 17-160z" fill="#b4abda" stroke="#b4abda"/><path d="M893 267l-17 160 180-64z" fill="#aca1d5" stroke="#aca1d5"/><path d="M893 267l163 96-20-108z" fill="#b0a6d5" stroke="#b0a6d5"/><path d="M1036 255l20 108 36-32z" fill="#a59ad0" stroke="#a59ad0"/><path d="M1092 331l-36 32 83 111z" fill="#9587ca" stroke="#9587ca"/><path d="M1092 331l47 143 99-49z" fill="#8a7bc5" stroke="#8a7bc5"/><path d="M1092 331l146 94 18-136z" fill="#9183c6" stroke="#9183c6"/><path d="M1256 289l-18 136 146-110z" fill="#8778c0" stroke="#8778c0"/><path d="M1384 315l-146 110 177 26z" fill="#7867ba" stroke="#7867ba"/><path d="M-107 428l1 193 35-23z" fill="#c0867a" stroke="#c0867a"/><path d="M-107 428l36 170 154-63z" fill="#c59289" stroke="#c59289"/><path d="M-107 428L83 535l11-115z" fill="#cfa398" stroke="#cfa398"/><path d="M94 420L83 535l107-79z" fill="#cfabad" stroke="#cfabad"/><path d="M190 456L83 535l109 57z" fill="#c5a3b1" stroke="#c5a3b1"/><path d="M190 456l2 136 68-21z" fill="#c3a6bd" stroke="#c3a6bd"/><path d="M190 456l70 115 108-85z" fill="#cab3cc" stroke="#cab3cc"/><path d="M190 456l178 30-64-115z" fill="#d5c2d2" stroke="#d5c2d2"/><path d="M304 371l64 115 91-35z" fill="#d6cbe6" stroke="#d6cbe6"/><path d="M459 451l-91 35 118 112z" fill="#c9bfec" stroke="#c9bfec"/><path d="M459 451l27 147 88-172z" fill="#c4bbe8" stroke="#c4bbe8"/><path d="M574 426l-88 172 124-8z" fill="#b7ace3" stroke="#b7ace3"/><path d="M574 426l36 164 54-174z" fill="#bab0e3" stroke="#bab0e3"/><path d="M664 416l-54 174 178-135z" fill="#b1a6de" stroke="#b1a6de"/><path d="M788 455L610 590l220-19z" fill="#a295d7" stroke="#a295d7"/><path d="M788 455l42 116 46-144z" fill="#a294d5" stroke="#a294d5"/><path d="M876 427l-46 144 74 27z" fill="#9586d0" stroke="#9586d0"/><path d="M876 427l28 171 106-104z" fill="#9384ce" stroke="#9384ce"/><path d="M876 427l134 67 46-131z" fill="#9b8dcf" stroke="#9b8dcf"/><path d="M1056 363l-46 131 129-20z" fill="#8f7fc9" stroke="#8f7fc9"/><path d="M1139 474l-129 20 136 2z" fill="#8473c5" stroke="#8473c5"/><path d="M1139 474l7 22 92-71z" fill="#7f6ec1" stroke="#7f6ec1"/><path d="M1238 425l-92 71 149 98z" fill="#7360bc" stroke="#7360bc"/><path d="M1238 425l57 169 112-112z" fill="#6a56b7" stroke="#6a56b7"/><path d="M1238 425l169 57 8-31z" fill="#6e5bb7" stroke="#6e5bb7"/><path d="M1415 451l-8 31 26 128z" fill="#5c46b0" stroke="#5c46b0"/><path d="M-71 598l-35 23 56 101z" fill="#af757a" stroke="#af757a"/><path d="M-71 598l21 124 75-78z" fill="#af7883" stroke="#af7883"/><path d="M-71 598l96 46 58-109z" fill="#b9888f" stroke="#b9888f"/><path d="M83 535L25 644l167-52z" fill="#ba91a2" stroke="#ba91a2"/><path d="M192 592L25 644l165 34z" fill="#b28ba7" stroke="#b28ba7"/><path d="M192 592l-2 86 70-107z" fill="#b798ba" stroke="#b798ba"/><path d="M260 571l-70 107 163-18z" fill="#b499c4" stroke="#b499c4"/><path d="M260 571l93 89 15-174z" fill="#bfabd4" stroke="#bfabd4"/><path d="M368 486l-15 174 133-62z" fill="#beb1e4" stroke="#beb1e4"/><path d="M486 598l-133 62 94 29z" fill="#b3a6e5" stroke="#b3a6e5"/><path d="M486 598l-39 91 50 4z" fill="#ab9de2" stroke="#ab9de2"/><path d="M486 598l11 95 108-12z" fill="#a697de" stroke="#a697de"/><path d="M486 598l119 83 5-91z" fill="#a799de" stroke="#a799de"/><path d="M610 590l-5 91 209-49z" fill="#9a8ad7" stroke="#9a8ad7"/><path d="M610 590l204 42 16-61z" fill="#9788d4" stroke="#9788d4"/><path d="M830 571l-16 61 70 11z" fill="#8a79ce" stroke="#8a79ce"/><path d="M830 571l54 72 20-45z" fill="#8978cd" stroke="#8978cd"/><path d="M904 598l-20 45 188 2z" fill="#7c69c6" stroke="#7c69c6"/><path d="M904 598l168 47-62-151z" fill="#806ec6" stroke="#806ec6"/><path d="M1010 494l62 151 74-149z" fill="#7d6ac3" stroke="#7d6ac3"/><path d="M1146 496l-74 149 41 34z" fill="#6e5abe" stroke="#6e5abe"/><path d="M1146 496l-33 183 182-85z" fill="#6954ba" stroke="#6954ba"/><path d="M1295 594l-182 85 182-22z" fill="#5b43b5" stroke="#5b43b5"/><path d="M1295 594v63l138-47z" fill="#533baf" stroke="#533baf"/><path d="M1295 594l138 16-26-128z" fill="#5842b0" stroke="#5842b0"/><path d="M25 644l-75 78 121 91z" fill="#a36e89" stroke="#a36e89"/><path d="M25 644l46 169 119-135z" fill="#a6799b" stroke="#a6799b"/><path d="M190 678L71 813l139-63z" fill="#a078a6" stroke="#a078a6"/><path d="M190 678l20 72 143-90z" fill="#aa8bbd" stroke="#aa8bbd"/><path d="M353 660l-143 90 185-22z" fill="#a78fcb" stroke="#a78fcb"/><path d="M353 660l42 68 52-39z" fill="#ab9add" stroke="#ab9add"/><path d="M447 689l-52 39 97 56z" fill="#a293e0" stroke="#a293e0"/><path d="M447 689l45 95 5-91z" fill="#a191df" stroke="#a191df"/><path d="M497 693l-5 91 113-103z" fill="#9b8bdb" stroke="#9b8bdb"/><path d="M605 681L492 784l159-15z" fill="#9180d7" stroke="#9180d7"/><path d="M605 681l46 88 163-137z" fill="#8e7cd3" stroke="#8e7cd3"/><path d="M814 632L651 769l91 44z" fill="#826ece" stroke="#826ece"/><path d="M814 632l-72 181 121-67z" fill="#7b67ca" stroke="#7b67ca"/><path d="M814 632l49 114 21-103z" fill="#7f6cca" stroke="#7f6cca"/><path d="M884 643l-21 103 161 20z" fill="#705bc3" stroke="#705bc3"/><path d="M884 643l140 123 48-121z" fill="#6e59c1" stroke="#6e59c1"/><path d="M1072 645l-48 121 89-87z" fill="#644dbc" stroke="#644dbc"/><path d="M1113 679l-89 87 83 19z" fill="#5b42b9" stroke="#5b42b9"/><path d="M1113 679l-6 106h101z" fill="#533ab5" stroke="#533ab5"/><path d="M1113 679l95 106 87-128z" fill="#533ab3" stroke="#533ab3"/><path d="M1295 657l-87 128 129-4z" fill="#452aad" stroke="#452aad"/><path d="M1295 657l42 124 96-171z" fill="#462dab" stroke="#462dab"/><path d="M71 813l277 27-138-90z" fill="#9872af" stroke="#9872af"/><path d="M210 750l138 90 47-112z" fill="#9d83c8" stroke="#9d83c8"/><path d="M348 840l989-59-595 32z" fill="#6d56c6" stroke="#6d56c6"/><path d="M348 840l394-27-250-29z" fill="#8c79d7" stroke="#8c79d7"/><path d="M348 840l144-56-97-56z" fill="#9c89dc" stroke="#9c89dc"/><path d="M492 784l250 29-91-44z" fill="#8571d2" stroke="#8571d2"/><path d="M742 813l595-32-129 4z" fill="#5137b5" stroke="#5137b5"/><path d="M742 813l466-28h-101z" fill="#5940ba" stroke="#5940ba"/><path d="M742 813l365-28-83-19z" fill="#6149be" stroke="#6149be"/><path d="M742 813l282-47-161-20z" fill="#6c55c3" stroke="#6c55c3"/></svg>