<svg xmlns="http://www.w3.org/2000/svg" width="350" height="550" viewBox="0, 0, 350, 550"><g><path d="M174.062 40l.376 107.062L70.562 185C56.604 140.828 42.646 93.655 28.708 49.477c.003 0 .005-.002.008-.003.173-.05.347-.098.52-.147l.216-.086C56.374 109.04 137.42 66.54 174.062 40z" fill="#FFEB3B"/><path d="M174.062 40c24.452 17.832 51.573 33.49 81.35 40.115 16.133 3.59 34.46 3.138 48.476-6.58 7.69-5.333 12.637-12.512 17.106-20.56.64.285.417.188.67.297-13.526 42.9-27.013 88.81-40.476 131.728l-106.75-37.938L174.062 40z" fill="#FBC02D"/></g><g><path d="M174.438 147.062l-167.376 59 26.376 219.25 141.124 77.626 141.876-78.626 26.5-219.374-168.5-57.876z" fill="#B3B3B3"/><path d="M326.188 217.688l-152.126-51.876v318.626l127.5-70.626 24.626-196.124z" fill="#00838F"/><path d="M25.812 218.562l22.626 196.126 125.624 69.624V165.688l-148.25 52.874z" fill="#00BCD4"/><path d="M209.312 324.188l-35-73.126-30.874 73.126h65.75zm13.376 30.75h-92.75l-20.75 51.874-38.626.75 103.5-230.25 107.126 230.25h-35.75l-22.75-52.624z" fill="#F2F2F2"/><path d="M174.062 177.312l.25 73.876 35 73.124h-35.124l-.126 30.626h48.626l22.75 52.624 37 .75-108.25-231z" fill="#B3B3B3"/></g></svg>