<svg width="1280" height="678" xmlns="http://www.w3.org/2000/svg"><path d="M-91-118l-16 796 15-357z" fill="#ffc9de" stroke="#ffc9de"/><path d="M-91-118l-1 439 10-190z" fill="#fff3eb" stroke="#fff3eb"/><path d="M-91-118l9 249L61 33z" fill="#fff7f2" stroke="#fff7f2"/><path d="M-91-118L61 33l48-105z" fill="#fff3ef" stroke="#fff3ef"/><path d="M-91-118l200 46 174-28z" fill="#feece9" stroke="#feece9"/><path d="M-91-118l374 18 398-25z" fill="#fddbde" stroke="#fddbde"/><path d="M109-72L61 33l199 37z" fill="#fee7e4" stroke="#fee7e4"/><path d="M109-72L260 70l23-170z" fill="#fee2e0" stroke="#fee2e0"/><path d="M283-100L260 70l57-51z" fill="#fddcde" stroke="#fddcde"/><path d="M283-100l34 119 13-35z" fill="#fddadd" stroke="#fddadd"/><path d="M283-100l47 84 189-26z" fill="#fdd4dc" stroke="#fdd4dc"/><path d="M283-100l236 58 162-83z" fill="#fcc7d7" stroke="#fcc7d7"/><path d="M330-16l-13 35 166 18z" fill="#fdd3da" stroke="#fdd3da"/><path d="M330-16l153 53 36-79z" fill="#fdcdd9" stroke="#fdcdd9"/><path d="M519-42l-36 79 149 92z" fill="#fcbdd0" stroke="#fcbdd0"/><path d="M519-42l113 171 49-254z" fill="#fbb8d2" stroke="#fbb8d2"/><path d="M681-125l-49 254L793 26z" fill="#f4a8cc" stroke="#f4a8cc"/><path d="M681-125L793 26l13-152z" fill="#ed9eca" stroke="#ed9eca"/><path d="M806-126L793 26l162 14z" fill="#e28ec5" stroke="#e28ec5"/><path d="M806-126L955 40l43-152z" fill="#d789c2" stroke="#d789c2"/><path d="M998-112L955 40l186-133z" fill="#c382bd" stroke="#c382bd"/><path d="M998-112l143 19 320 25z" fill="#a580b5" stroke="#a580b5"/><path d="M1141-93L955 40l152 81z" fill="#bd7eb9" stroke="#bd7eb9"/><path d="M1141-93l-34 214 155-200z" fill="#ab80b7" stroke="#ab80b7"/><path d="M1141-93l121 14 199 11z" fill="#9680b1" stroke="#9680b1"/><path d="M1262-79l-155 200 219-75z" fill="#a07db0" stroke="#a07db0"/><path d="M1262-79l64 125 135-114z" fill="#8b80af" stroke="#8b80af"/><path d="M1461-68L1326 46l158 70z" fill="#807da8" stroke="#807da8"/><path d="M-82 131l-10 190 12-153z" fill="#ffe0e5" stroke="#ffe0e5"/><path d="M-82 131l2 37 174 49z" fill="#ffe2e2" stroke="#ffe2e2"/><path d="M-82 131l176 86L61 33z" fill="#ffe6e1" stroke="#ffe6e1"/><path d="M61 33l33 184L260 70z" fill="#fedfd9" stroke="#fedfd9"/><path d="M260 70L94 217l179-23z" fill="#fecfd1" stroke="#fecfd1"/><path d="M260 70l13 124 131-14z" fill="#fdc8ce" stroke="#fdc8ce"/><path d="M260 70l144 110-87-161z" fill="#fdd0d2" stroke="#fdd0d2"/><path d="M317 19l87 161 79-143z" fill="#fdcbd2" stroke="#fdcbd2"/><path d="M483 37l-79 143 142 33z" fill="#fcb9c9" stroke="#fcb9c9"/><path d="M483 37l63 176 86-84z" fill="#fcb2c6" stroke="#fcb2c6"/><path d="M632 129l-86 84 87 43z" fill="#fc9dc0" stroke="#fc9dc0"/><path d="M632 129l1 127 137 28z" fill="#f78dbb" stroke="#f78dbb"/><path d="M632 129l138 155 23-258z" fill="#f193bc" stroke="#f193bc"/><path d="M793 26l-23 258L955 40z" fill="#e485b9" stroke="#e485b9"/><path d="M955 40L770 284l211-18z" fill="#da70b1" stroke="#da70b1"/><path d="M955 40l26 226 126-145z" fill="#c673af" stroke="#c673af"/><path d="M1107 121L981 266l160-11z" fill="#bb62a8" stroke="#bb62a8"/><path d="M1107 121l34 134 97-32z" fill="#ac64a5" stroke="#ac64a5"/><path d="M1107 121l131 102 88-177z" fill="#a172a6" stroke="#a172a6"/><path d="M1326 46l-88 177 237-13z" fill="#8c6c9f" stroke="#8c6c9f"/><path d="M1326 46l149 164 9-94z" fill="#80749e" stroke="#80749e"/><path d="M1484 116l-9 94-4 296z" fill="#805090" stroke="#805090"/><path d="M1484 116l-13 390-5 337z" fill="#671278" stroke="#671278"/><path d="M-80 168l-12 153L94 217z" fill="#ffd5de" stroke="#ffd5de"/><path d="M94 217L-92 321l113 47z" fill="#ffbed5" stroke="#ffbed5"/><path d="M94 217L21 368l201-20z" fill="#feb2cb" stroke="#feb2cb"/><path d="M94 217l128 131 51-154z" fill="#febbcb" stroke="#febbcb"/><path d="M273 194l-51 154 146 76z" fill="#fd9fc0" stroke="#fd9fc0"/><path d="M273 194l95 230 36-244z" fill="#fdaac5" stroke="#fdaac5"/><path d="M404 180l-36 244 178-211z" fill="#fda0c1" stroke="#fda0c1"/><path d="M546 213L368 424l209-23z" fill="#fc82b6" stroke="#fc82b6"/><path d="M546 213l31 188 56-145z" fill="#fc88b8" stroke="#fc88b8"/><path d="M633 256l-56 145 69 2z" fill="#fa70b0" stroke="#fa70b0"/><path d="M633 256l13 147 124-119z" fill="#f671b1" stroke="#f671b1"/><path d="M770 284L646 403l124 7z" fill="#ee58a8" stroke="#ee58a8"/><path d="M770 284v126l199-57z" fill="#e34ba5" stroke="#e34ba5"/><path d="M770 284l199 69 12-87z" fill="#d954a7" stroke="#d954a7"/><path d="M981 266l-12 87 172-98z" fill="#c34fa2" stroke="#c34fa2"/><path d="M1141 255l-172 98 210 19z" fill="#b8429c" stroke="#b8429c"/><path d="M1141 255l38 117 67-31z" fill="#a74398" stroke="#a74398"/><path d="M1141 255l105 86-8-118z" fill="#a4529c" stroke="#a4529c"/><path d="M1238 223l8 118 177 9z" fill="#934895" stroke="#934895"/><path d="M1238 223l185 127 52-140z" fill="#865596" stroke="#865596"/><path d="M1475 210l-52 140 48 156z" fill="#7e3888" stroke="#7e3888"/><path d="M-92 321l-15 357 33-147z" fill="#de8fc5" stroke="#de8fc5"/><path d="M-92 321l18 210 95-163z" fill="#f99ecd" stroke="#f99ecd"/><path d="M21 368l-95 163 97 14z" fill="#e988c1" stroke="#e988c1"/><path d="M21 368l2 177 187-68z" fill="#f080bc" stroke="#f080bc"/><path d="M21 368l189 109 12-129z" fill="#f98fbe" stroke="#f98fbe"/><path d="M222 348l-12 129 158-53z" fill="#f77eb5" stroke="#f77eb5"/><path d="M368 424l-158 53 149 31z" fill="#ec6bae" stroke="#ec6bae"/><path d="M368 424l-9 84 112 41z" fill="#e264a9" stroke="#e264a9"/><path d="M368 424l103 125 106-148z" fill="#f05baa" stroke="#f05baa"/><path d="M577 401L471 549l170-1z" fill="#df50a2" stroke="#df50a2"/><path d="M577 401l64 147 5-145z" fill="#f149a4" stroke="#f149a4"/><path d="M646 403l-5 145 129-138z" fill="#eb3ea0" stroke="#eb3ea0"/><path d="M770 410L641 548l181-26z" fill="#d53399" stroke="#d53399"/><path d="M770 410l52 112 147-169z" fill="#da299a" stroke="#da299a"/><path d="M969 353L822 522l181 59z" fill="#bd1a91" stroke="#bd1a91"/><path d="M969 353l34 228 72-19z" fill="#a9158c" stroke="#a9158c"/><path d="M969 353l106 209 104-190z" fill="#b31b90" stroke="#b31b90"/><path d="M1179 372l-104 190 189-29z" fill="#921286" stroke="#921286"/><path d="M1179 372l85 161-18-192z" fill="#99208b" stroke="#99208b"/><path d="M1246 341l18 192 159-183z" fill="#8c2388" stroke="#8c2388"/><path d="M1423 350l-159 183 207-27z" fill="#76127f" stroke="#76127f"/><path d="M-74 531l-33 147L23 545z" fill="#c08cba" stroke="#c08cba"/><path d="M23 545l-130 133 207-52z" fill="#b387b3" stroke="#b387b3"/><path d="M23 545l77 81 110-149z" fill="#cd7db1" stroke="#cd7db1"/><path d="M210 477L100 626l66 86z" fill="#b779a8" stroke="#b779a8"/><path d="M210 477l-44 235 183-21z" fill="#ae72a1" stroke="#ae72a1"/><path d="M210 477l139 214 10-183z" fill="#c96ca5" stroke="#c96ca5"/><path d="M359 508l-10 183 122-142z" fill="#bf64a1" stroke="#bf64a1"/><path d="M471 549L349 691l182-2z" fill="#a75e99" stroke="#a75e99"/><path d="M471 549l60 140 110-141z" fill="#b95299" stroke="#b95299"/><path d="M641 548L531 689l124-6z" fill="#a64a92" stroke="#a64a92"/><path d="M641 548l14 135 167-161z" fill="#b53a92" stroke="#b53a92"/><path d="M822 522L655 683l148 33z" fill="#98308a" stroke="#98308a"/><path d="M822 522l-19 194 182-74z" fill="#901e86" stroke="#901e86"/><path d="M822 522l163 120 18-61z" fill="#961a87" stroke="#961a87"/><path d="M1003 581l-18 61 122-23z" fill="#78147f" stroke="#78147f"/><path d="M1003 581l104 38-32-57z" fill="#7e1381" stroke="#7e1381"/><path d="M1075 562l32 57 157-86z" fill="#75127f" stroke="#75127f"/><path d="M1264 533l-157 86 223 3z" fill="#5e1279" stroke="#5e1279"/><path d="M1264 533l66 89 141-116z" fill="#581277" stroke="#581277"/><path d="M1471 506l-141 116 85 41z" fill="#3e1271" stroke="#3e1271"/><path d="M1471 506l-56 157 51 180z" fill="#1f1267" stroke="#1f1267"/><path d="M-107 678l40 121 167-173z" fill="#9289ad" stroke="#9289ad"/><path d="M100 626L-67 799l192-25z" fill="#8583a4" stroke="#8583a4"/><path d="M100 626l25 148 41-62z" fill="#907ca0" stroke="#907ca0"/><path d="M166 712l-41 62 48-9z" fill="#7f799a" stroke="#7f799a"/><path d="M166 712l7 53 176-74z" fill="#887397" stroke="#887397"/><path d="M349 691l-176 74 178 6z" fill="#806d94" stroke="#806d94"/><path d="M349 691l2 80 180-82z" fill="#896393" stroke="#896393"/><path d="M531 689l-180 82 118 66z" fill="#7d5e8d" stroke="#7d5e8d"/><path d="M531 689l-62 148 153-6z" fill="#7c5387" stroke="#7c5387"/><path d="M531 689l91 142 33-148z" fill="#814b89" stroke="#814b89"/><path d="M655 683l-33 148 181-115z" fill="#773c83" stroke="#773c83"/><path d="M803 716L622 831l197 19z" fill="#6f327b" stroke="#6f327b"/><path d="M803 716l16 134 165-13z" fill="#601e75" stroke="#601e75"/><path d="M803 716l181 121 1-195z" fill="#5c1b79" stroke="#5c1b79"/><path d="M985 642l-1 195 123-218z" fill="#581578" stroke="#581578"/><path d="M1107 619L984 837l85 36z" fill="#40136f" stroke="#40136f"/><path d="M1107 619l-38 254 251-51z" fill="#2c126a" stroke="#2c126a"/><path d="M1107 619l213 203 10-200z" fill="#34126e" stroke="#34126e"/><path d="M1330 622l-10 200 95-159z" fill="#1d1268" stroke="#1d1268"/><path d="M1415 663l-95 159 146 21z" fill="#03125f" stroke="#03125f"/><path d="M-67 799l536 38-344-63z" fill="#7e7893" stroke="#7e7893"/><path d="M125 774l344 63-296-72z" fill="#7e7090" stroke="#7e7090"/><path d="M173 765l296 72-118-66z" fill="#7e6a8e" stroke="#7e6a8e"/><path d="M469 837l600 36-250-23z" fill="#6b2b74" stroke="#6b2b74"/><path d="M469 837l350 13-197-19z" fill="#7c467d" stroke="#7c467d"/><path d="M819 850l250 23-85-36z" fill="#50196c" stroke="#50196c"/><path d="M1069 873l397-30-146-21z" fill="#17125e" stroke="#17125e"/></svg>