<svg width="1280" height="651" xmlns="http://www.w3.org/2000/svg"><path d="M-3-37l-88 96L49 15z" fill="#ffefe5" stroke="#ffefe5"/><path d="M-3-37l52 52 25-70z" fill="#ffece4" stroke="#ffece4"/><path d="M74-55L49 15l126 83z" fill="#ffe3d6" stroke="#ffe3d6"/><path d="M74-55L175 98l13-174z" fill="#fee2d8" stroke="#fee2d8"/><path d="M188-76L175 98l124-69z" fill="#fed9c9" stroke="#fed9c9"/><path d="M188-76L299 29 249-77z" fill="#fed9cd" stroke="#fed9cd"/><path d="M188-76l61-1 202-33z" fill="#fed5c7" stroke="#fed5c7"/><path d="M249-77l50 106 152-139z" fill="#fed1c3" stroke="#fed1c3"/><path d="M451-110L299 29l65 54z" fill="#fecebc" stroke="#fecebc"/><path d="M451-110L364 83 582 8z" fill="#fcc4b4" stroke="#fcc4b4"/><path d="M451-110L582 8 552-98z" fill="#fabdb0" stroke="#fabdb0"/><path d="M451-110l101 12 477-9z" fill="#f5aba2" stroke="#f5aba2"/><path d="M552-98L582 8l101-48z" fill="#f7b4a9" stroke="#f7b4a9"/><path d="M552-98l131 58 115-40z" fill="#f5aba2" stroke="#f5aba2"/><path d="M552-98l246 18 231-27z" fill="#f19d98" stroke="#f19d98"/><path d="M683-40L582 8l59 4z" fill="#f6b0a6" stroke="#f6b0a6"/><path d="M683-40l-42 52 94 8z" fill="#f5aaa0" stroke="#f5aaa0"/><path d="M683-40l52 60 63-100z" fill="#f3a49d" stroke="#f3a49d"/><path d="M798-80L735 20l126 93z" fill="#f19991" stroke="#f19991"/><path d="M798-80l63 193 80-131z" fill="#ee948e" stroke="#ee948e"/><path d="M798-80l143 62 88-89z" fill="#ec8e8d" stroke="#ec8e8d"/><path d="M941-18l-80 131 41 24z" fill="#ed8277" stroke="#ed8277"/><path d="M941-18l-39 155 141-21z" fill="#eb7b72" stroke="#eb7b72"/><path d="M941-18l102 134 77-90z" fill="#e87975" stroke="#e87975"/><path d="M941-18l179 44-91-133z" fill="#e98183" stroke="#e98183"/><path d="M1029-107l91 133 20-122z" fill="#e68080" stroke="#e68080"/><path d="M1140-96l-20 122 100-90z" fill="#e48080" stroke="#e48080"/><path d="M1140-96l80 32 165 29z" fill="#e18080" stroke="#e18080"/><path d="M1220-64l-100 90 94 76z" fill="#e37c78" stroke="#e37c78"/><path d="M1220-64l-6 166 171-137z" fill="#e0807d" stroke="#e0807d"/><path d="M1385-35l-171 137 207 9z" fill="#de756e" stroke="#de756e"/><path d="M-91 59l-15 198 94-32z" fill="#ffd5bf" stroke="#ffd5bf"/><path d="M-91 59l79 166 46-24z" fill="#ffd4be" stroke="#ffd4be"/><path d="M-91 59L34 201 49 15z" fill="#ffdfcf" stroke="#ffdfcf"/><path d="M49 15L34 201 175 98z" fill="#ffd4c1" stroke="#ffd4c1"/><path d="M175 98L34 201l140-49z" fill="#fec8b0" stroke="#fec8b0"/><path d="M175 98l-1 54 93-21z" fill="#fec5ae" stroke="#fec5ae"/><path d="M175 98l92 33 32-102z" fill="#fec9b4" stroke="#fec9b4"/><path d="M299 29l-32 102 97-48z" fill="#fec4ae" stroke="#fec4ae"/><path d="M364 83l-97 48 155 107z" fill="#feb497" stroke="#feb497"/><path d="M364 83l58 155 60-71z" fill="#feab8c" stroke="#feab8c"/><path d="M364 83l118 84L582 8z" fill="#fcb39b" stroke="#fcb39b"/><path d="M582 8L482 167l229-29z" fill="#f8a28c" stroke="#f8a28c"/><path d="M582 8l129 130-70-126z" fill="#f6a595" stroke="#f6a595"/><path d="M641 12l70 126 24-118z" fill="#f49e8f" stroke="#f49e8f"/><path d="M735 20l-24 118 26-18z" fill="#f39483" stroke="#f39483"/><path d="M735 20l2 100 124-7z" fill="#f19081" stroke="#f19081"/><path d="M861 113l-124 7 90 155z" fill="#f07c68" stroke="#f07c68"/><path d="M861 113l-34 162 75-138z" fill="#ee7561" stroke="#ee7561"/><path d="M1043 116l-141 21 150 104z" fill="#ea6758" stroke="#ea6758"/><path d="M1043 116l9 125 15-94z" fill="#e86052" stroke="#e86052"/><path d="M1043 116l24 31 53-121z" fill="#e76e64" stroke="#e76e64"/><path d="M1120 26l-53 121 136-4z" fill="#e56c62" stroke="#e56c62"/><path d="M1120 26l83 117 11-41z" fill="#e36f66" stroke="#e36f66"/><path d="M1214 102l-11 41 121 43z" fill="#e16558" stroke="#e16558"/><path d="M1214 102l110 84 97-75z" fill="#de675a" stroke="#de675a"/><path d="M1421 111l-97 75 93 74z" fill="#dc5d4c" stroke="#dc5d4c"/><path d="M1421 111l-4 149 3 513z" fill="#db2922" stroke="#db2922"/><path d="M-12 225l-94 32 32 105z" fill="#ffbba7" stroke="#ffbba7"/><path d="M-12 225l-62 137L62 255z" fill="#ffb6a1" stroke="#ffb6a1"/><path d="M-12 225l74 30-28-54z" fill="#ffc2a8" stroke="#ffc2a8"/><path d="M34 201l28 54 112-103z" fill="#ffc2a7" stroke="#ffc2a7"/><path d="M174 152L62 255l163 60z" fill="#feb397" stroke="#feb397"/><path d="M174 152l51 163 42-184z" fill="#feb699" stroke="#feb699"/><path d="M267 131l-42 184 133 15z" fill="#fea285" stroke="#fea285"/><path d="M267 131l91 199 64-92z" fill="#fea382" stroke="#fea382"/><path d="M422 238l-64 92 64-82z" fill="#fe9375" stroke="#fe9375"/><path d="M422 238v10l60-81z" fill="#fd9e7c" stroke="#fd9e7c"/><path d="M482 167l-60 81 161 17z" fill="#fb9675" stroke="#fb9675"/><path d="M482 167l101 98 128-127z" fill="#f89276" stroke="#f89276"/><path d="M711 138L583 265l131-24z" fill="#f58468" stroke="#f58468"/><path d="M711 138l3 103 23-121z" fill="#f38771" stroke="#f38771"/><path d="M737 120l-23 121 113 34z" fill="#f27a61" stroke="#f27a61"/><path d="M902 137l-75 138 225-34z" fill="#ec6551" stroke="#ec6551"/><path d="M1067 147l-15 94 64-49z" fill="#e75c4a" stroke="#e75c4a"/><path d="M1067 147l49 45 87-49z" fill="#e56253" stroke="#e56253"/><path d="M1116 192l-64 49 110 30z" fill="#e65241" stroke="#e65241"/><path d="M1116 192l46 79 41-128z" fill="#e45a48" stroke="#e45a48"/><path d="M1203 143l-41 128 112-23z" fill="#e25643" stroke="#e25643"/><path d="M1203 143l71 105 50-62z" fill="#e05c4b" stroke="#e05c4b"/><path d="M1324 186l-50 62 143 12z" fill="#de5341" stroke="#de5341"/><path d="M-106 257l-5 519 37-414z" fill="#ff8b84" stroke="#ff8b84"/><path d="M62 255L-74 362l189 97z" fill="#ff9d8c" stroke="#ff9d8c"/><path d="M62 255l53 204 53-65z" fill="#fe9280" stroke="#fe9280"/><path d="M62 255l106 139 57-79z" fill="#fe9c86" stroke="#fe9c86"/><path d="M225 315l-57 79 183-33z" fill="#fe8a74" stroke="#fe8a74"/><path d="M225 315l126 46 7-31z" fill="#fe8a71" stroke="#fe8a71"/><path d="M358 330l-7 31 18 50z" fill="#fe7c65" stroke="#fe7c65"/><path d="M358 330l11 81 174-3z" fill="#fe725b" stroke="#fe725b"/><path d="M358 330l185 78-121-160z" fill="#fd8064" stroke="#fd8064"/><path d="M422 248l121 160 40-143z" fill="#fb7d62" stroke="#fb7d62"/><path d="M583 265l-40 143 158 11z" fill="#f7624e" stroke="#f7624e"/><path d="M583 265l118 154 13-178z" fill="#f56a55" stroke="#f56a55"/><path d="M714 241l-13 178 41-11z" fill="#f35746" stroke="#f35746"/><path d="M714 241l28 167 85-133z" fill="#f25f4c" stroke="#f25f4c"/><path d="M827 275l-85 133 100-82z" fill="#f05243" stroke="#f05243"/><path d="M827 275l15 51 210-85z" fill="#ed5545" stroke="#ed5545"/><path d="M842 326l-100 82 159 55z" fill="#f03e33" stroke="#f03e33"/><path d="M842 326l59 137 85-86z" fill="#ed372e" stroke="#ed372e"/><path d="M842 326l144 51 66-136z" fill="#eb4639" stroke="#eb4639"/><path d="M1052 241l-66 136 108-12z" fill="#e8382f" stroke="#e8382f"/><path d="M1052 241l42 124 68-94z" fill="#e64234" stroke="#e64234"/><path d="M1162 271l-68 94 168 66z" fill="#e43127" stroke="#e43127"/><path d="M1162 271l100 160 12-183z" fill="#e13b2f" stroke="#e13b2f"/><path d="M1274 248l-12 183 66-39z" fill="#df3027" stroke="#df3027"/><path d="M1274 248l54 144 89-132z" fill="#de4033" stroke="#de4033"/><path d="M1417 260l-89 132 75 253z" fill="#dc1b17" stroke="#dc1b17"/><path d="M1417 260l-14 385 17 128z" fill="#db0000" stroke="#db0000"/><path d="M-74 362l-37 414 63-131z" fill="#ff7772" stroke="#ff7772"/><path d="M-74 362l26 283 35-106z" fill="#ff7874" stroke="#ff7874"/><path d="M-74 362l61 177 128-80z" fill="#ff847b" stroke="#ff847b"/><path d="M115 459l-128 80 118-42z" fill="#ff726a" stroke="#ff726a"/><path d="M115 459l-10 38 110 79z" fill="#fe685f" stroke="#fe685f"/><path d="M115 459l100 117 49-31z" fill="#fe5f56" stroke="#fe5f56"/><path d="M115 459l149 86-96-151z" fill="#fe7165" stroke="#fe7165"/><path d="M168 394l96 151 105-134z" fill="#fe6e5e" stroke="#fe6e5e"/><path d="M168 394l201 17-18-50z" fill="#fe7c68" stroke="#fe7c68"/><path d="M369 411L264 545l97 55z" fill="#fe5548" stroke="#fe5548"/><path d="M369 411l-8 189 109-61z" fill="#fe4f41" stroke="#fe4f41"/><path d="M369 411l101 128 73-131z" fill="#fd5b49" stroke="#fd5b49"/><path d="M543 408l-73 131 107 41z" fill="#fa4337" stroke="#fa4337"/><path d="M543 408l34 172 124-161z" fill="#f74438" stroke="#f74438"/><path d="M701 419L577 580l105-8z" fill="#f63029" stroke="#f63029"/><path d="M701 419l-19 153 68-49z" fill="#f42f27" stroke="#f42f27"/><path d="M701 419l49 104-8-115z" fill="#f33b31" stroke="#f33b31"/><path d="M742 408l8 115 151-60z" fill="#f12f28" stroke="#f12f28"/><path d="M901 463l-151 60 183-38z" fill="#ee211d" stroke="#ee211d"/><path d="M901 463l32 22 53-108z" fill="#ec2521" stroke="#ec2521"/><path d="M986 377l-53 108 62 8z" fill="#eb1e1c" stroke="#eb1e1c"/><path d="M986 377l9 116 99-128z" fill="#e9231f" stroke="#e9231f"/><path d="M1094 365l-99 128 146 14z" fill="#e71512" stroke="#e71512"/><path d="M1094 365l47 142 121-76z" fill="#e41b17" stroke="#e41b17"/><path d="M1262 431l-121 76 142 42z" fill="#e20a0a" stroke="#e20a0a"/><path d="M1262 431l21 118 39-33z" fill="#df0909" stroke="#df0909"/><path d="M1262 431l60 85 6-124z" fill="#df1714" stroke="#df1714"/><path d="M1328 392l-6 124 81 129z" fill="#dd0305" stroke="#dd0305"/><path d="M-13 539l-35 106 110 48z" fill="#ff7069" stroke="#ff7069"/><path d="M-13 539l75 154 80-76z" fill="#ff6a62" stroke="#ff6a62"/><path d="M-13 539l155 78-37-120z" fill="#ff6960" stroke="#ff6960"/><path d="M105 497l37 120 73-41z" fill="#fe6258" stroke="#fe6258"/><path d="M215 576l-73 41 125 80z" fill="#fe5d52" stroke="#fe5d52"/><path d="M215 576l52 121-3-152z" fill="#fe5a4d" stroke="#fe5a4d"/><path d="M264 545l3 152 94-97z" fill="#fe5548" stroke="#fe5548"/><path d="M470 539l-109 61 97 189z" fill="#fe4939" stroke="#fe4939"/><path d="M470 539l-12 250 136-126z" fill="#fb4032" stroke="#fb4032"/><path d="M470 539l124 124-17-83z" fill="#fa3b2f" stroke="#fa3b2f"/><path d="M577 580l17 83 53-1z" fill="#f73429" stroke="#f73429"/><path d="M577 580l70 82 35-90z" fill="#f63127" stroke="#f63127"/><path d="M682 572l-35 90 105-30z" fill="#f42a21" stroke="#f42a21"/><path d="M682 572l70 60-2-109z" fill="#f3261e" stroke="#f3261e"/><path d="M750 523l2 109 181-147z" fill="#f01c17" stroke="#f01c17"/><path d="M933 485L752 632l206 7z" fill="#ee1311" stroke="#ee1311"/><path d="M933 485l25 154 37-146z" fill="#eb0a0a" stroke="#eb0a0a"/><path d="M995 493l-37 146 36 7z" fill="#ea0708" stroke="#ea0708"/><path d="M995 493l-1 153 114 6z" fill="#e80203" stroke="#e80203"/><path d="M995 493l113 159 33-145z" fill="#e70000" stroke="#e70000"/><path d="M1141 507l-33 145 175-103z" fill="#e30000" stroke="#e30000"/><path d="M1283 549l-175 103 203 64z" fill="#e10000" stroke="#e10000"/><path d="M1283 549l28 167 92-71zM1283 549l120 96-81-129z" fill="#de0000" stroke="#de0000"/><path d="M-48 645l-63 131 173-83z" fill="#ff736d" stroke="#ff736d"/><path d="M62 693l-173 83 222-50z" fill="#ff6e67" stroke="#ff6e67"/><path d="M62 693l49 33 31-109z" fill="#ff675d" stroke="#ff675d"/><path d="M142 617l-31 109 156-29z" fill="#fe6056" stroke="#fe6056"/><path d="M267 697l-156 29 99 113z" fill="#fe5e53" stroke="#fe5e53"/><path d="M267 697l-57 142 80-96z" fill="#fe594c" stroke="#fe594c"/><path d="M267 697l23 46 71-143z" fill="#fe5447" stroke="#fe5447"/><path d="M361 600l-71 143 168 46z" fill="#fe4e40" stroke="#fe4e40"/><path d="M594 663L458 789l103 17z" fill="#fa3c2f" stroke="#fa3c2f"/><path d="M594 663l-33 143 105-33z" fill="#f73429" stroke="#f73429"/><path d="M594 663l72 110-19-111z" fill="#f63127" stroke="#f63127"/><path d="M647 662l19 111 86-141z" fill="#f52a22" stroke="#f52a22"/><path d="M752 632l-86 141 164-44z" fill="#f2231d" stroke="#f2231d"/><path d="M752 632l78 97 128-90z" fill="#ef1814" stroke="#ef1814"/><path d="M958 639l-128 90 73 12z" fill="#ed120f" stroke="#ed120f"/><path d="M958 639l-55 102 91-95z" fill="#eb0b0a" stroke="#eb0b0a"/><path d="M994 646l-91 95 120 37z" fill="#eb0909" stroke="#eb0909"/><path d="M994 646l29 132 85-126z" fill="#e80002" stroke="#e80002"/><path d="M1108 652l-85 126 91 14z" fill="#e70000" stroke="#e70000"/><path d="M1108 652l6 140 197-76z" fill="#e30000" stroke="#e30000"/><path d="M1311 716l-197 76 149 36z" fill="#e20000" stroke="#e20000"/><path d="M1311 716l-48 112 157-55z" fill="#de0000" stroke="#de0000"/><path d="M1311 716l109 57-17-128z" fill="#dc0000" stroke="#dc0000"/><path d="M-111 776l321 63-99-113z" fill="#ff6a61" stroke="#ff6a61"/><path d="M210 839l1053-11-702-22z" fill="#f52c23" stroke="#f52c23"/><path d="M210 839l351-33-103-17z" fill="#fe4b3b" stroke="#fe4b3b"/><path d="M210 839l248-50-168-46z" fill="#fe5345" stroke="#fe5345"/><path d="M561 806l702 22-149-36z" fill="#ea0808" stroke="#ea0808"/><path d="M561 806l553-14-91-14z" fill="#ed110f" stroke="#ed110f"/><path d="M561 806l462-28-357-5z" fill="#f2231c" stroke="#f2231c"/><path d="M666 773l357 5-120-37z" fill="#ee1512" stroke="#ee1512"/><path d="M666 773l237-32-73-12z" fill="#f11d18" stroke="#f11d18"/></svg>