<svg width="1280" height="634" xmlns="http://www.w3.org/2000/svg"><path d="M-64-104l-60 426 19-77z" fill="#e8cc90" stroke="#e8cc90"/><path d="M-64-104l-41 349 61-152z" fill="#e9c77c" stroke="#e9c77c"/><path d="M-64-104l20 197L111-57z" fill="#ecc268" stroke="#ecc268"/><path d="M-64-104l175 47 295-46z" fill="#f1c76c" stroke="#f1c76c"/><path d="M-64-104l470 1 1058-21z" fill="#dacd85" stroke="#dacd85"/><path d="M111-57L-44 93h145z" fill="#eecd86" stroke="#eecd86"/><path d="M111-57L101 93l94-147z" fill="#f0ce84" stroke="#f0ce84"/><path d="M111-57l84 3 211-49z" fill="#f4d080" stroke="#f4d080"/><path d="M195-54L101 93h112z" fill="#f2d699" stroke="#f2d699"/><path d="M195-54l18 147 207-37z" fill="#f5dda7" stroke="#f5dda7"/><path d="M195-54L420 56l-14-159z" fill="#f7db9d" stroke="#f7db9d"/><path d="M406-103l14 159 112-87z" fill="#f6e1ac" stroke="#f6e1ac"/><path d="M406-103l126 72 111 8z" fill="#e8d99e" stroke="#e8d99e"/><path d="M406-103l237 80 161-24z" fill="#d8d194" stroke="#d8d194"/><path d="M406-103l398 56 188-24z" fill="#c2c685" stroke="#c2c685"/><path d="M406-103l586 32 472-53z" fill="#9ab36a" stroke="#9ab36a"/><path d="M532-31L420 56l145 74z" fill="#ece4c0" stroke="#ece4c0"/><path d="M532-31l33 161 59-42z" fill="#e0e0be" stroke="#e0e0be"/><path d="M532-31l92 119 19-111z" fill="#dbd9ab" stroke="#dbd9ab"/><path d="M643-23L624 88l178-12z" fill="#cad6af" stroke="#cad6af"/><path d="M643-23l159 99 2-123z" fill="#c0cd9c" stroke="#c0cd9c"/><path d="M804-47l-2 123 129 23z" fill="#aec9a0" stroke="#aec9a0"/><path d="M804-47L931 99l61-170z" fill="#a3c08b" stroke="#a3c08b"/><path d="M992-71L931 99l172 35z" fill="#91be96" stroke="#91be96"/><path d="M992-71l111 205 62-192z" fill="#82b37f" stroke="#82b37f"/><path d="M992-71l173 13 299-66z" fill="#80a159" stroke="#80a159"/><path d="M1165-58l-62 192 113-183z" fill="#80ae7b" stroke="#80ae7b"/><path d="M1165-58l51 9 248-75z" fill="#809d55" stroke="#809d55"/><path d="M1216-49l-113 183 188-56z" fill="#80b086" stroke="#80b086"/><path d="M1216-49l75 127 108-25z" fill="#80a574" stroke="#80a574"/><path d="M1216-49l183 102 65-177z" fill="#809a5a" stroke="#809a5a"/><path d="M1464-124l-65 177 68 162z" fill="#809d6f" stroke="#809d6f"/><path d="M-44 93l-61 152 145-19z" fill="#ebd4a5" stroke="#ebd4a5"/><path d="M-44 93l84 133 61-133z" fill="#edd4a0" stroke="#edd4a0"/><path d="M101 93L40 226l152-18z" fill="#f0deb9" stroke="#f0deb9"/><path d="M101 93l91 115 21-115z" fill="#f1deb5" stroke="#f1deb5"/><path d="M213 93l-21 115 139-37z" fill="#f4e7cb" stroke="#f4e7cb"/><path d="M213 93l118 78 89-115z" fill="#f7e8c7" stroke="#f7e8c7"/><path d="M420 56l-89 115 226 47z" fill="#f9f3e5" stroke="#f9f3e5"/><path d="M420 56l137 162 8-88z" fill="#eaecda" stroke="#eaecda"/><path d="M565 130l-8 88 123-5z" fill="#dbeae3" stroke="#dbeae3"/><path d="M565 130l115 83-56-125z" fill="#d7e5d4" stroke="#d7e5d4"/><path d="M624 88l56 125L802 76z" fill="#c8ddc7" stroke="#c8ddc7"/><path d="M802 76L680 213l147-41z" fill="#bcdbca" stroke="#bcdbca"/><path d="M802 76l25 96 104-73z" fill="#add0b7" stroke="#add0b7"/><path d="M931 99l-104 73 117 113z" fill="#a4d4c9" stroke="#a4d4c9"/><path d="M931 99l13 186 159-151z" fill="#93cbbd" stroke="#93cbbd"/><path d="M1103 134L944 285l190-27z" fill="#82c8c3" stroke="#82c8c3"/><path d="M1103 134l31 124 161-17z" fill="#80c1ba" stroke="#80c1ba"/><path d="M1103 134l192 107-4-163z" fill="#80b7a2" stroke="#80b7a2"/><path d="M1291 78l4 163 104-188z" fill="#80ad91" stroke="#80ad91"/><path d="M1399 53l-104 188 172-26z" fill="#80ad9b" stroke="#80ad9b"/><path d="M-105 245l-19 77 164-96z" fill="#d7cfa1" stroke="#d7cfa1"/><path d="M40 226l-164 96 226 52z" fill="#cad1a8" stroke="#cad1a8"/><path d="M40 226l62 148 90-166z" fill="#dbdcbe" stroke="#dbdcbe"/><path d="M192 208l-90 166 94 47z" fill="#c6dabf" stroke="#c6dabf"/><path d="M192 208l4 213 233-95z" fill="#d0e4d4" stroke="#d0e4d4"/><path d="M192 208l237 118-98-155z" fill="#eef0e5" stroke="#eef0e5"/><path d="M331 171l98 155 128-108z" fill="#eff7f6" stroke="#eff7f6"/><path d="M557 218L429 326l121 97z" fill="#c4e9e6" stroke="#c4e9e6"/><path d="M557 218l-7 205 135 3z" fill="#a9e0db" stroke="#a9e0db"/><path d="M557 218l128 208-5-213z" fill="#b9e3df" stroke="#b9e3df"/><path d="M680 213l5 213 118-58z" fill="#99d8d2" stroke="#99d8d2"/><path d="M680 213l123 155 24-196z" fill="#aedcd8" stroke="#aedcd8"/><path d="M827 172l-24 196 141-83z" fill="#95d3ce" stroke="#95d3ce"/><path d="M944 285l-141 83 221 58z" fill="#6cc6be" stroke="#6cc6be"/><path d="M944 285l80 141 67-32z" fill="#58beb5" stroke="#58beb5"/><path d="M944 285l147 109 43-136z" fill="#64c1b8" stroke="#64c1b8"/><path d="M1134 258l-43 136 191 8z" fill="#4fb5aa" stroke="#4fb5aa"/><path d="M1134 258l148 144 13-161z" fill="#61b4aa" stroke="#61b4aa"/><path d="M1295 241l-13 161 89-33z" fill="#54ab9f" stroke="#54ab9f"/><path d="M1295 241l76 128 96-154z" fill="#69aca1" stroke="#69aca1"/><path d="M1467 215l-96 154 60 100z" fill="#4fa195" stroke="#4fa195"/><path d="M1467 215l-36 254 35 388z" fill="#168f7e" stroke="#168f7e"/><path d="M-124 322l13 450 63-199z" fill="#70b17a" stroke="#70b17a"/><path d="M-124 322l76 251 150-199z" fill="#a1c395" stroke="#a1c395"/><path d="M102 374L-48 573l127 4z" fill="#85c197" stroke="#85c197"/><path d="M102 374L79 577l117-156z" fill="#9acbaa" stroke="#9acbaa"/><path d="M196 421L79 577l181-110z" fill="#91cdaf" stroke="#91cdaf"/><path d="M196 421l64 46 169-141z" fill="#b2decd" stroke="#b2decd"/><path d="M429 326L260 467l76 27z" fill="#abdfd2" stroke="#abdfd2"/><path d="M429 326l-93 168 211-24z" fill="#ace5df" stroke="#ace5df"/><path d="M429 326l118 144 3-47z" fill="#a7e2dc" stroke="#a7e2dc"/><path d="M550 423l-3 47 89 3z" fill="#89d8d0" stroke="#89d8d0"/><path d="M550 423l86 50 49-47z" fill="#86d6ce" stroke="#86d6ce"/><path d="M685 426l-49 47 143 15z" fill="#71cdc5" stroke="#71cdc5"/><path d="M685 426l94 62 24-120z" fill="#73cdc5" stroke="#73cdc5"/><path d="M803 368l-24 120 200 4z" fill="#59c3ba" stroke="#59c3ba"/><path d="M803 368l176 124 45-66z" fill="#52bfb5" stroke="#52bfb5"/><path d="M1024 426l-45 66 184-19z" fill="#30b2a6" stroke="#30b2a6"/><path d="M1024 426l139 47-72-79z" fill="#34b3a7" stroke="#34b3a7"/><path d="M1091 394l72 79 119-71z" fill="#36ada1" stroke="#36ada1"/><path d="M1282 402l-119 71 139 63z" fill="#25a395" stroke="#25a395"/><path d="M1282 402l20 134 129-67z" fill="#269c8e" stroke="#269c8e"/><path d="M1282 402l149 67-60-100z" fill="#39a092" stroke="#39a092"/><path d="M-48 573l-63 199 79-60z" fill="#6aa770" stroke="#6aa770"/><path d="M-48 573l16 139 73-81z" fill="#6cb07e" stroke="#6cb07e"/><path d="M-48 573l89 58 38-54z" fill="#6db789" stroke="#6db789"/><path d="M79 577l-38 54 233 62z" fill="#71bb96" stroke="#71bb96"/><path d="M79 577l195 116-14-226z" fill="#73c6a9" stroke="#73c6a9"/><path d="M260 467l14 226 62-199z" fill="#7fd0bb" stroke="#7fd0bb"/><path d="M336 494l-62 199 71-4z" fill="#77cbb7" stroke="#77cbb7"/><path d="M336 494l9 195 237-69z" fill="#7bd5cb" stroke="#7bd5cb"/><path d="M336 494l246 126-35-150z" fill="#80d8cf" stroke="#80d8cf"/><path d="M547 470l35 150 54-147z" fill="#70d0c8" stroke="#70d0c8"/><path d="M636 473l-54 147 197-132z" fill="#60cac0" stroke="#60cac0"/><path d="M779 488L582 620l88 89z" fill="#4dc2b6" stroke="#4dc2b6"/><path d="M779 488L670 709l180 22z" fill="#3db7aa" stroke="#3db7aa"/><path d="M779 488l71 243 126-52z" fill="#2bb1a2" stroke="#2bb1a2"/><path d="M779 488l197 191 3-187z" fill="#2bb5a8" stroke="#2bb5a8"/><path d="M979 492l-3 187 187-206z" fill="#15ac9e" stroke="#15ac9e"/><path d="M1163 473L976 679l179 55z" fill="#01a08f" stroke="#01a08f"/><path d="M1163 473l-8 261 101-23z" fill="#009886" stroke="#009886"/><path d="M1163 473l93 238 46-175z" fill="#019a8a" stroke="#019a8a"/><path d="M1302 536l-46 175 134 13z" fill="#008d7a" stroke="#008d7a"/><path d="M1302 536l88 188 41-255z" fill="#00907e" stroke="#00907e"/><path d="M1431 469l-41 255 76 133z" fill="#00816d" stroke="#00816d"/><path d="M-32 712l-79 60 236 88z" fill="#6ca36e" stroke="#6ca36e"/><path d="M-32 712l157 148-84-229z" fill="#6eab7c" stroke="#6eab7c"/><path d="M41 631l84 229 149-167z" fill="#71b48e" stroke="#71b48e"/><path d="M274 693L125 860l143-48z" fill="#74b493" stroke="#74b493"/><path d="M274 693l-6 119 77-123z" fill="#76bfa7" stroke="#76bfa7"/><path d="M345 689l-77 123 51 52z" fill="#77bba2" stroke="#77bba2"/><path d="M345 689l-26 175 148-39z" fill="#79bfad" stroke="#79bfad"/><path d="M345 689l122 136 115-205z" fill="#74c8bc" stroke="#74c8bc"/><path d="M582 620L467 825l203-116z" fill="#60bfb2" stroke="#60bfb2"/><path d="M670 709L467 825l247 4z" fill="#58b5a6" stroke="#58b5a6"/><path d="M670 709l44 120 136-98z" fill="#41af9f" stroke="#41af9f"/><path d="M850 731l-136 98 104 18z" fill="#38a695" stroke="#38a695"/><path d="M850 731l-32 116 140-68z" fill="#29a290" stroke="#29a290"/><path d="M850 731l108 48 18-100z" fill="#20a392" stroke="#20a392"/><path d="M976 679l-18 100 109 55z" fill="#139a88" stroke="#139a88"/><path d="M976 679l91 155 88-100z" fill="#079784" stroke="#079784"/><path d="M1155 734l-88 100 200-12z" fill="#008b76" stroke="#008b76"/><path d="M1155 734l112 88-11-111z" fill="#008a75" stroke="#008a75"/><path d="M1256 711l11 111 123-98z" fill="#00846f" stroke="#00846f"/><path d="M1390 724l-123 98 199 35z" fill="#007a63" stroke="#007a63"/><path d="M125 860l194 4-51-52z" fill="#74b08f" stroke="#74b08f"/><path d="M319 864l1147-7-648-10z" fill="#2b9c88" stroke="#2b9c88"/><path d="M319 864l499-17-104-18z" fill="#58b09f" stroke="#58b09f"/><path d="M319 864l395-35-247-4z" fill="#6db9a9" stroke="#6db9a9"/><path d="M818 847l648 10-399-23z" fill="#008a74" stroke="#008a74"/><path d="M818 847l249-13-109-55z" fill="#1c9986" stroke="#1c9986"/><path d="M1067 834l399 23-199-35z" fill="#007f68" stroke="#007f68"/></svg>